<svg xmlns="http://www.w3.org/2000/svg" enable-background="new 0 0 124 124" viewBox="0 0 124 124" id="quality-control">
  <path fill="#df9410" d="M57,58H23c-4.418,0-8,3.582-8,8v34c0,4.418,3.582,8,8,8h34c4.418,0,8-3.582,8-8V66C65,61.582,61.418,58,57,58z"></path>
  <path fill="#cd8505" fill-rule="evenodd" d="M53,58c4.418,0,8,3.582,8,8v34c0,4.418-3.582,8-8,8h4c4.418,0,8-3.582,8-8V66c0-4.418-3.582-8-8-8H53z" clip-rule="evenodd"></path>
  <path fill="#f2b549" d="M65,96H15v4c0,4.418,3.582,8,8,8h34c4.418,0,8-3.582,8-8V96z"></path>
  <path fill="#f1a928" fill-rule="evenodd" d="M53,108h4c4.418,0,8-3.582,8-8v-4h-4v4C61,104.418,57.418,108,53,108z" clip-rule="evenodd"></path>
  <path fill="#c8720a" d="M51,58H34v8c0,2.209,1.791,4,4,4h9c2.209,0,4-1.791,4-4V58z"></path>
  <path fill="#f3dace" d="M49,58H31v6c0,2.209,1.791,4,4,4h10c2.209,0,4-1.791,4-4V58z"></path>
  <path fill="#41d272" fill-rule="evenodd" d="M42.577,17.641C40,20.282,40,24.533,40,33.034s0,12.752,2.577,15.393c2.577,2.641,6.726,2.641,15.022,2.641
	c0.443,0,0.815,0.327,1.068,0.707c0.003,0.004,0.006,0.009,0.009,0.013l1.515,2.241c0.875,1.294,2.742,1.294,3.617,0l1.515-2.241
	c0.003-0.004,0.006-0.009,0.009-0.013c0.253-0.38,0.625-0.707,1.068-0.707c8.297,0,12.445,0,15.022-2.641
	C84,45.786,84,41.536,84,33.034s0-12.752-2.577-15.393C78.845,15,74.697,15,66.4,15h-8.8C49.303,15,45.155,15,42.577,17.641z" clip-rule="evenodd"></path>
  <path fill="#29b258" fill-rule="evenodd" d="M60.5,54.396c0.95,0.912,2.526,0.79,3.308-0.367l1.515-2.241l0.009-0.013c0.253-0.38,0.625-0.707,1.068-0.707
	c8.297,0,12.445,0,15.022-2.641C84,45.786,84,41.536,84,33.034s0-12.752-2.577-15.393C78.845,15,74.697,15,66.4,15h-3
	c8.297,0,12.445,0,15.022,2.641C81,20.282,81,24.533,81,33.034s0,12.752-2.577,15.393c-2.577,2.641-6.726,2.641-15.022,2.641
	c-0.443,0-0.815,0.327-1.068,0.707l-0.009,0.013l-1.515,2.241C60.716,54.166,60.612,54.289,60.5,54.396z" clip-rule="evenodd"></path>
  <path fill="#3fcb6f" fill-rule="evenodd" d="M68.879,28.879c1.172-1.172,3.071-1.172,4.243,0s1.172,3.071,0,4.243l-9,9c-1.172,1.172-3.071,1.172-4.243,0
	l-6-6c-1.172-1.172-1.172-3.071,0-4.243s3.071-1.172,4.243,0l3.172,3.172c0.39,0.39,1.024,0.39,1.414,0L68.879,28.879z" clip-rule="evenodd"></path>
  <path fill="#f8e6e4" fill-rule="evenodd" d="M67.879,26.879c1.172-1.172,3.071-1.172,4.243,0s1.172,3.071,0,4.243l-9,9c-1.172,1.172-3.071,1.172-4.243,0
	l-6-6c-1.172-1.172-1.172-3.071,0-4.243s3.071-1.172,4.243,0l3.172,3.172c0.39,0.39,1.024,0.39,1.414,0L67.879,26.879z" clip-rule="evenodd"></path>
  <path fill="#df9410" d="M100,64H72c-4.418,0-8,3.582-8,8v28c0,4.418,3.582,8,8,8h28c4.418,0,8-3.582,8-8V72
	C108,67.582,104.418,64,100,64z"></path>
  <path fill="#f2b549" d="M108,96H64v4c0,4.418,3.582,8,8,8h28c4.418,0,8-3.582,8-8V96z"></path>
  <path fill="#c8720a" d="M96,64H80v6c0,2.209,1.791,4,4,4h8c2.209,0,4-1.791,4-4V64z"></path>
  <path fill="#f3dace" d="M94,64H78v4c0,2.209,1.791,4,4,4h8c2.209,0,4-1.791,4-4V64z"></path>
</svg>
